<svg xmlns="http://www.w3.org/2000/svg" xmlns:xlink="http://www.w3.org/1999/xlink" version="1.0" x="0" y="0" width="2400" height="2363.4701597924327" viewBox="139.4 94.86575927734376 61.2 60.268489074707034" preserveAspectRatio="xMidYMid meet" color-interpolation-filters="sRGB"><g><defs><linearGradient id="92" x1="0%" y1="0%" x2="100%" y2="0%"><stop offset="0%" stop-color="#fa71cd"></stop> <stop offset="100%" stop-color="#9b59b6"></stop></linearGradient><linearGradient id="93" x1="0%" y1="0%" x2="100%" y2="0%"><stop offset="0%" stop-color="#f9d423"></stop> <stop offset="100%" stop-color="#f83600"></stop></linearGradient><linearGradient id="94" x1="0%" y1="0%" x2="100%" y2="0%"><stop offset="0%" stop-color="#0064d2"></stop> <stop offset="100%" stop-color="#1cb0f6"></stop></linearGradient><linearGradient id="95" x1="0%" y1="0%" x2="100%" y2="0%"><stop offset="0%" stop-color="#f00978"></stop> <stop offset="100%" stop-color="#3f51b1"></stop></linearGradient><linearGradient id="96" x1="0%" y1="0%" x2="100%" y2="0%"><stop offset="0%" stop-color="#7873f5"></stop> <stop offset="100%" stop-color="#ec77ab"></stop></linearGradient><linearGradient id="97" x1="0%" y1="0%" x2="100%" y2="0%"><stop offset="0%" stop-color="#f9d423"></stop> <stop offset="100%" stop-color="#e14fad"></stop></linearGradient><linearGradient id="98" x1="0%" y1="0%" x2="100%" y2="0%"><stop offset="0%" stop-color="#009efd"></stop> <stop offset="100%" stop-color="#2af598"></stop></linearGradient><linearGradient id="99" x1="0%" y1="0%" x2="100%" y2="0%"><stop offset="0%" stop-color="#ffcc00"></stop> <stop offset="100%" stop-color="#00b140"></stop></linearGradient><linearGradient id="100" x1="0%" y1="0%" x2="100%" y2="0%"><stop offset="0%" stop-color="#d51007"></stop> <stop offset="100%" stop-color="#ff8177"></stop></linearGradient><linearGradient id="102" x1="0%" y1="0%" x2="100%" y2="0%"><stop offset="0%" stop-color="#a2b6df"></stop> <stop offset="100%" stop-color="#0c3483"></stop></linearGradient><linearGradient id="103" x1="0%" y1="0%" x2="100%" y2="0%"><stop offset="0%" stop-color="#7ac5d8"></stop> <stop offset="100%" stop-color="#eea2a2"></stop></linearGradient><linearGradient id="104" x1="0%" y1="0%" x2="100%" y2="0%"><stop offset="0%" stop-color="#00ecbc"></stop> <stop offset="100%" stop-color="#007adf"></stop></linearGradient><linearGradient id="105" x1="0%" y1="0%" x2="100%" y2="0%"><stop offset="0%" stop-color="#b88746"></stop> <stop offset="100%" stop-color="#fdf5a6"></stop></linearGradient></defs><g class="imagesvg isNoFont" transform="translate(140,95.46575546264648)"><g><rect fill="#333" fill-opacity="0" stroke-width="2" x="0" y="0" width="60" height="59.06848991405534" class="image-rect"></rect> <svg x="0" y="0" width="60" height="59.06848991405534" filtersec="colorsb124613841" class="image-svg-svg primary" style="overflow: visible;"><svg xmlns="http://www.w3.org/2000/svg" viewBox="0.43845731019973755 -0.00000958778036874719 101.56156158447266 99.98497772216797"><path d="M69.3 59.41l-9.89 9.89L51 77.73 30.46 98.26A6 6 0 0 1 22 89.83L42.56 69.3 51 60.88l9.9-9.9zM102 24.28a6 6 0 0 1-1.75 4.21L77.72 51l-8.42-8.44 22.5-22.5a6 6 0 0 1 10.2 4.22z" fill="#0059cc"></path><path d="M83.64 6a5.94 5.94 0 0 1-1.74 4.21L41.08 51l-8.42-8.42 9.9-9.89L51 24.24 73.48 1.75A6 6 0 0 1 83.64 6zM32.66 59.41L12.13 79.93a6 6 0 0 1-8.42-8.42L24.24 51z" fill="#00dac7"></path><path d="M51 24.24l-8.42 8.43-22.5-22.5A6 6 0 0 1 24.28 0a5.89 5.89 0 0 1 4.2 1.75zM98.25 79.93a5.94 5.94 0 0 1-8.42 0L51 41.09l8.42-8.42 9.9 9.89 8.4 8.44 20.53 20.51a6 6 0 0 1 0 8.42z" fill="#00baec"></path><path d="M51 60.88l-8.44 8.42L1.74 28.49a6 6 0 0 1 8.43-8.43l22.49 22.5L41.08 51zM79.93 98.26a6 6 0 0 1-8.42 0L51 77.73l8.42-8.43 20.51 20.53a6 6 0 0 1 0 8.43z" fill="#00abd8"></path></svg></svg> </g></g><defs v-gra="od"></defs></g></svg>